<mxfile host="app.diagrams.net" modified="2021-08-16T21:03:36.564Z" agent="5.0 (X11)" etag="9AwVd8Fqwbrsz_e5OaGb" version="14.9.6" type="github">
  <diagram id="C5RBs43oDa-KdzZeNtuy" name="Page-1">
    <mxGraphModel dx="3555" dy="2939" grid="1" gridSize="10" guides="1" tooltips="1" connect="1" arrows="1" fold="1" page="1" pageScale="1" pageWidth="827" pageHeight="1169" math="0" shadow="0">
      <root>
        <mxCell id="WIyWlLk6GJQsqaUBKTNV-0" />
        <mxCell id="WIyWlLk6GJQsqaUBKTNV-1" parent="WIyWlLk6GJQsqaUBKTNV-0" />
        <mxCell id="iFRISCmcmUTzYtkYyS1w-3" style="edgeStyle=orthogonalEdgeStyle;rounded=1;orthogonalLoop=1;jettySize=auto;html=1;entryX=0;entryY=0.5;entryDx=0;entryDy=0;fontSize=25;strokeWidth=4;endArrow=diamond;endFill=1;" edge="1" parent="WIyWlLk6GJQsqaUBKTNV-1" source="iFRISCmcmUTzYtkYyS1w-0" target="iFRISCmcmUTzYtkYyS1w-1">
          <mxGeometry relative="1" as="geometry" />
        </mxCell>
        <mxCell id="iFRISCmcmUTzYtkYyS1w-0" value="Database" style="whiteSpace=wrap;html=1;aspect=fixed;fontSize=25;strokeWidth=5;" vertex="1" parent="WIyWlLk6GJQsqaUBKTNV-1">
          <mxGeometry x="100" y="210" width="120" height="120" as="geometry" />
        </mxCell>
        <mxCell id="iFRISCmcmUTzYtkYyS1w-4" style="edgeStyle=orthogonalEdgeStyle;rounded=1;orthogonalLoop=1;jettySize=auto;html=1;fontSize=25;endArrow=diamond;endFill=1;strokeWidth=4;" edge="1" parent="WIyWlLk6GJQsqaUBKTNV-1" source="iFRISCmcmUTzYtkYyS1w-1" target="iFRISCmcmUTzYtkYyS1w-2">
          <mxGeometry relative="1" as="geometry" />
        </mxCell>
        <mxCell id="iFRISCmcmUTzYtkYyS1w-8" style="edgeStyle=orthogonalEdgeStyle;rounded=1;orthogonalLoop=1;jettySize=auto;html=1;fontSize=25;endArrow=diamond;endFill=1;strokeWidth=4;" edge="1" parent="WIyWlLk6GJQsqaUBKTNV-1" source="iFRISCmcmUTzYtkYyS1w-1" target="iFRISCmcmUTzYtkYyS1w-5">
          <mxGeometry relative="1" as="geometry" />
        </mxCell>
        <mxCell id="iFRISCmcmUTzYtkYyS1w-9" style="edgeStyle=orthogonalEdgeStyle;rounded=1;orthogonalLoop=1;jettySize=auto;html=1;entryX=1;entryY=0.5;entryDx=0;entryDy=0;fontSize=25;endArrow=diamond;endFill=1;strokeWidth=4;" edge="1" parent="WIyWlLk6GJQsqaUBKTNV-1" source="iFRISCmcmUTzYtkYyS1w-1" target="iFRISCmcmUTzYtkYyS1w-0">
          <mxGeometry relative="1" as="geometry" />
        </mxCell>
        <mxCell id="iFRISCmcmUTzYtkYyS1w-24" value="Backups" style="edgeLabel;html=1;align=center;verticalAlign=middle;resizable=0;points=[];fontSize=25;" vertex="1" connectable="0" parent="iFRISCmcmUTzYtkYyS1w-9">
          <mxGeometry x="-0.131" y="-3" relative="1" as="geometry">
            <mxPoint as="offset" />
          </mxGeometry>
        </mxCell>
        <mxCell id="iFRISCmcmUTzYtkYyS1w-14" style="edgeStyle=orthogonalEdgeStyle;rounded=1;orthogonalLoop=1;jettySize=auto;html=1;fontSize=25;endArrow=diamond;endFill=1;strokeWidth=4;" edge="1" parent="WIyWlLk6GJQsqaUBKTNV-1" source="iFRISCmcmUTzYtkYyS1w-1" target="iFRISCmcmUTzYtkYyS1w-10">
          <mxGeometry relative="1" as="geometry">
            <Array as="points">
              <mxPoint x="430" y="30" />
              <mxPoint x="290" y="30" />
              <mxPoint x="290" y="80" />
            </Array>
          </mxGeometry>
        </mxCell>
        <mxCell id="iFRISCmcmUTzYtkYyS1w-1" value="Manager" style="whiteSpace=wrap;html=1;aspect=fixed;fontSize=25;strokeWidth=5;" vertex="1" parent="WIyWlLk6GJQsqaUBKTNV-1">
          <mxGeometry x="370" y="70" width="120" height="120" as="geometry" />
        </mxCell>
        <mxCell id="iFRISCmcmUTzYtkYyS1w-7" style="edgeStyle=orthogonalEdgeStyle;rounded=1;orthogonalLoop=1;jettySize=auto;html=1;entryX=1;entryY=0.5;entryDx=0;entryDy=0;fontSize=25;endArrow=diamond;endFill=1;strokeWidth=4;" edge="1" parent="WIyWlLk6GJQsqaUBKTNV-1" source="iFRISCmcmUTzYtkYyS1w-2" target="iFRISCmcmUTzYtkYyS1w-1">
          <mxGeometry relative="1" as="geometry">
            <Array as="points">
              <mxPoint x="680" y="130" />
            </Array>
          </mxGeometry>
        </mxCell>
        <mxCell id="iFRISCmcmUTzYtkYyS1w-26" value="&lt;div style=&quot;font-size: 19px;&quot;&gt;Send request to&lt;/div&gt;&lt;div style=&quot;font-size: 19px;&quot;&gt;resolve&lt;br style=&quot;font-size: 19px;&quot;&gt;&lt;/div&gt;" style="edgeLabel;html=1;align=center;verticalAlign=middle;resizable=0;points=[];fontSize=19;" vertex="1" connectable="0" parent="iFRISCmcmUTzYtkYyS1w-7">
          <mxGeometry x="0.163" y="-1" relative="1" as="geometry">
            <mxPoint as="offset" />
          </mxGeometry>
        </mxCell>
        <mxCell id="iFRISCmcmUTzYtkYyS1w-21" style="edgeStyle=orthogonalEdgeStyle;rounded=1;orthogonalLoop=1;jettySize=auto;html=1;fontSize=25;endArrow=diamond;endFill=1;strokeWidth=8;fillColor=#60a917;strokeColor=#2D7600;" edge="1" parent="WIyWlLk6GJQsqaUBKTNV-1" source="iFRISCmcmUTzYtkYyS1w-20" target="iFRISCmcmUTzYtkYyS1w-2">
          <mxGeometry relative="1" as="geometry">
            <Array as="points">
              <mxPoint x="740" y="-230" />
            </Array>
          </mxGeometry>
        </mxCell>
        <mxCell id="iFRISCmcmUTzYtkYyS1w-22" value="Incoming" style="edgeLabel;html=1;align=center;verticalAlign=middle;resizable=0;points=[];fontSize=25;" vertex="1" connectable="0" parent="iFRISCmcmUTzYtkYyS1w-21">
          <mxGeometry x="-0.1211" y="6" relative="1" as="geometry">
            <mxPoint as="offset" />
          </mxGeometry>
        </mxCell>
        <mxCell id="iFRISCmcmUTzYtkYyS1w-27" style="edgeStyle=orthogonalEdgeStyle;rounded=1;orthogonalLoop=1;jettySize=auto;html=1;fontSize=19;endArrow=diamond;endFill=1;strokeWidth=4;" edge="1" parent="WIyWlLk6GJQsqaUBKTNV-1" source="iFRISCmcmUTzYtkYyS1w-2" target="iFRISCmcmUTzYtkYyS1w-5">
          <mxGeometry relative="1" as="geometry" />
        </mxCell>
        <mxCell id="iFRISCmcmUTzYtkYyS1w-30" value="&lt;div&gt;Recieving &lt;br&gt;&lt;/div&gt;&lt;div&gt;logs&lt;br&gt;&lt;/div&gt;" style="edgeLabel;html=1;align=center;verticalAlign=middle;resizable=0;points=[];fontSize=19;" vertex="1" connectable="0" parent="iFRISCmcmUTzYtkYyS1w-27">
          <mxGeometry x="-0.1481" y="4" relative="1" as="geometry">
            <mxPoint as="offset" />
          </mxGeometry>
        </mxCell>
        <mxCell id="iFRISCmcmUTzYtkYyS1w-2" value="Scheduler" style="whiteSpace=wrap;html=1;aspect=fixed;fontSize=25;strokeWidth=5;" vertex="1" parent="WIyWlLk6GJQsqaUBKTNV-1">
          <mxGeometry x="610" y="210" width="140" height="140" as="geometry" />
        </mxCell>
        <mxCell id="iFRISCmcmUTzYtkYyS1w-6" style="edgeStyle=orthogonalEdgeStyle;rounded=1;orthogonalLoop=1;jettySize=auto;html=1;entryX=0.5;entryY=1;entryDx=0;entryDy=0;fontSize=25;endArrow=diamond;endFill=1;strokeWidth=4;" edge="1" parent="WIyWlLk6GJQsqaUBKTNV-1" source="iFRISCmcmUTzYtkYyS1w-5" target="iFRISCmcmUTzYtkYyS1w-1">
          <mxGeometry relative="1" as="geometry" />
        </mxCell>
        <mxCell id="iFRISCmcmUTzYtkYyS1w-29" value="&lt;div&gt;Recieving&lt;/div&gt;&lt;div&gt;&lt;br&gt;&lt;/div&gt;&lt;div&gt;logs&lt;br&gt;&lt;/div&gt;" style="edgeLabel;html=1;align=center;verticalAlign=middle;resizable=0;points=[];fontSize=19;" vertex="1" connectable="0" parent="iFRISCmcmUTzYtkYyS1w-6">
          <mxGeometry x="0.1444" y="6" relative="1" as="geometry">
            <mxPoint x="-13" y="6" as="offset" />
          </mxGeometry>
        </mxCell>
        <mxCell id="iFRISCmcmUTzYtkYyS1w-17" style="edgeStyle=orthogonalEdgeStyle;rounded=1;orthogonalLoop=1;jettySize=auto;html=1;entryX=0.433;entryY=1.008;entryDx=0;entryDy=0;entryPerimeter=0;fontSize=25;endArrow=diamond;endFill=1;strokeWidth=4;" edge="1" parent="WIyWlLk6GJQsqaUBKTNV-1" source="iFRISCmcmUTzYtkYyS1w-5" target="iFRISCmcmUTzYtkYyS1w-0">
          <mxGeometry relative="1" as="geometry" />
        </mxCell>
        <mxCell id="iFRISCmcmUTzYtkYyS1w-28" value="Logs" style="edgeLabel;html=1;align=center;verticalAlign=middle;resizable=0;points=[];fontSize=19;" vertex="1" connectable="0" parent="iFRISCmcmUTzYtkYyS1w-17">
          <mxGeometry x="0.004" y="-1" relative="1" as="geometry">
            <mxPoint as="offset" />
          </mxGeometry>
        </mxCell>
        <mxCell id="iFRISCmcmUTzYtkYyS1w-5" value="Logger" style="whiteSpace=wrap;html=1;aspect=fixed;fontSize=25;strokeWidth=5;" vertex="1" parent="WIyWlLk6GJQsqaUBKTNV-1">
          <mxGeometry x="330" y="330" width="120" height="120" as="geometry" />
        </mxCell>
        <mxCell id="iFRISCmcmUTzYtkYyS1w-15" style="edgeStyle=orthogonalEdgeStyle;rounded=1;orthogonalLoop=1;jettySize=auto;html=1;entryX=0.5;entryY=0;entryDx=0;entryDy=0;fontSize=25;endArrow=diamond;endFill=1;strokeWidth=4;" edge="1" parent="WIyWlLk6GJQsqaUBKTNV-1" source="iFRISCmcmUTzYtkYyS1w-10" target="iFRISCmcmUTzYtkYyS1w-1">
          <mxGeometry relative="1" as="geometry">
            <Array as="points">
              <mxPoint x="290" y="80" />
              <mxPoint x="290" y="30" />
              <mxPoint x="430" y="30" />
            </Array>
          </mxGeometry>
        </mxCell>
        <mxCell id="iFRISCmcmUTzYtkYyS1w-19" value="Outgoing" style="edgeStyle=orthogonalEdgeStyle;rounded=1;orthogonalLoop=1;jettySize=auto;html=1;fontSize=25;endArrow=diamond;endFill=1;strokeWidth=9;fillColor=#d80073;strokeColor=#A50040;" edge="1" parent="WIyWlLk6GJQsqaUBKTNV-1" source="iFRISCmcmUTzYtkYyS1w-10" target="iFRISCmcmUTzYtkYyS1w-20">
          <mxGeometry relative="1" as="geometry">
            <mxPoint x="140" y="-80" as="targetPoint" />
          </mxGeometry>
        </mxCell>
        <mxCell id="iFRISCmcmUTzYtkYyS1w-10" value="Network Manager" style="whiteSpace=wrap;html=1;aspect=fixed;fontSize=25;strokeWidth=5;" vertex="1" parent="WIyWlLk6GJQsqaUBKTNV-1">
          <mxGeometry x="90" y="20" width="120" height="120" as="geometry" />
        </mxCell>
        <mxCell id="iFRISCmcmUTzYtkYyS1w-20" value="" style="pointerEvents=1;shadow=0;dashed=0;html=1;strokeColor=none;fillColor=#005F4B;labelPosition=center;verticalLabelPosition=bottom;verticalAlign=top;align=center;outlineConnect=0;shape=mxgraph.veeam2.globe;fontSize=25;" vertex="1" parent="WIyWlLk6GJQsqaUBKTNV-1">
          <mxGeometry x="46" y="-280" width="174" height="174" as="geometry" />
        </mxCell>
      </root>
    </mxGraphModel>
  </diagram>
</mxfile>
